<svg width="24" height="24" viewBox="0 0 24 24" fill="none" xmlns="http://www.w3.org/2000/svg">
<g id="account_box">
<mask id="mask0_7578_3222" style="mask-type:alpha" maskUnits="userSpaceOnUse" x="0" y="0" width="24" height="24">
<rect id="Bounding box" width="24" height="24" fill="#D9D9D9"/>
</mask>
<g mask="url(#mask0_7578_3222)">
<path id="account_box_2" d="M5 18.225C5.9 17.3417 6.946 16.6457 8.138 16.137C9.32933 15.629 10.6167 15.375 12 15.375C13.3833 15.375 14.671 15.629 15.863 16.137C17.0543 16.6457 18.1 17.3417 19 18.225V5.625C19 5.45833 18.9373 5.31267 18.812 5.188C18.6873 5.06267 18.5417 5 18.375 5H5.625C5.45833 5 5.31267 5.06267 5.188 5.188C5.06267 5.31267 5 5.45833 5 5.625V18.225ZM12 13.075C12.8333 13.075 13.5417 12.7833 14.125 12.2C14.7083 11.6167 15 10.9083 15 10.075C15 9.24167 14.7083 8.53333 14.125 7.95C13.5417 7.36667 12.8333 7.075 12 7.075C11.1667 7.075 10.4583 7.36667 9.875 7.95C9.29167 8.53333 9 9.24167 9 10.075C9 10.9083 9.29167 11.6167 9.875 12.2C10.4583 12.7833 11.1667 13.075 12 13.075ZM5.625 20C5.15833 20 4.771 19.846 4.463 19.538C4.15433 19.2293 4 18.8417 4 18.375V5.625C4 5.15833 4.15433 4.771 4.463 4.463C4.771 4.15433 5.15833 4 5.625 4H18.375C18.8417 4 19.2293 4.15433 19.538 4.463C19.846 4.771 20 5.15833 20 5.625V18.375C20 18.8417 19.846 19.2293 19.538 19.538C19.2293 19.846 18.8417 20 18.375 20H5.625ZM5.875 19H18.125V18.825C17.2417 17.9917 16.2833 17.375 15.25 16.975C14.2167 16.575 13.1333 16.375 12 16.375C10.9 16.375 9.82933 16.575 8.788 16.975C7.746 17.375 6.775 17.9833 5.875 18.8V19ZM12 12.075C11.45 12.075 10.9793 11.879 10.588 11.487C10.196 11.0957 10 10.625 10 10.075C10 9.525 10.196 9.054 10.588 8.662C10.9793 8.27067 11.45 8.075 12 8.075C12.55 8.075 13.021 8.27067 13.413 8.662C13.8043 9.054 14 9.525 14 10.075C14 10.625 13.8043 11.0957 13.413 11.487C13.021 11.879 12.55 12.075 12 12.075Z" fill="#000002"/>
</g>
</g>
</svg>
