<svg width="25" height="24" viewBox="0 0 25 24" fill="none" xmlns="http://www.w3.org/2000/svg">
<g id="XMLID_17_">
<path id="XMLID_22_" d="M24.5 12C24.5 5.37188 19.1281 0 12.5 0C5.87188 0 0.5 5.37188 0.5 12C0.5 17.9902 4.88563 22.9547 10.6259 23.8552V15.4716H7.58141V12H10.6259V9.35672C10.6259 6.35156 12.4142 4.68844 15.1564 4.68844C16.4713 4.68844 17.8456 4.92516 17.8456 4.92516V7.87734H16.3334C14.8409 7.87734 14.3806 8.80453 14.3806 9.75141V12H17.7078L17.1753 15.4716H14.3806V23.8552C20.1144 22.9547 24.5 17.9902 24.5 12Z" fill="#1877F2"/>
<path id="XMLID_18_" d="M17.1686 15.4716L17.7016 12H14.3744V9.75144C14.3744 8.80457 14.8413 7.87738 16.3272 7.87738H17.8394V4.9252C17.8394 4.9252 16.465 4.68848 15.1502 4.68848C12.4085 4.68848 10.6197 6.35207 10.6197 9.35676V12H7.5752V15.4716H10.6197V23.8552C11.2314 23.9536 11.8558 24 12.4938 24C13.1318 24 13.7561 23.9475 14.3679 23.8552V15.4716H17.1686Z" fill="white"/>
</g>
</svg>
