<svg width="24" height="24" viewBox="0 0 24 24" fill="none" xmlns="http://www.w3.org/2000/svg">
<g id="favorite">
<mask id="mask0_8554_887" style="mask-type:alpha" maskUnits="userSpaceOnUse" x="0" y="0" width="24" height="24">
<rect id="Bounding box" width="24" height="24" fill="#D9D9D9"/>
</mask>
<g mask="url(#mask0_8554_887)">
<path id="favorite_2" d="M12 19.65L11.25 18.975C9.61667 17.475 8.26667 16.1957 7.2 15.137C6.13333 14.079 5.28767 13.1457 4.663 12.337C4.03767 11.529 3.604 10.7957 3.362 10.137C3.12067 9.47902 3 8.81669 3 8.15002C3 6.88336 3.43333 5.81669 4.3 4.95002C5.16667 4.08336 6.23333 3.65002 7.5 3.65002C8.38333 3.65002 9.20833 3.87502 9.975 4.32502C10.7417 4.77502 11.4167 5.43336 12 6.30002C12.5833 5.43336 13.2583 4.77502 14.025 4.32502C14.7917 3.87502 15.6167 3.65002 16.5 3.65002C17.7667 3.65002 18.8333 4.08336 19.7 4.95002C20.5667 5.81669 21 6.88336 21 8.15002C21 8.81669 20.8793 9.47902 20.638 10.137C20.396 10.7957 19.9627 11.529 19.338 12.337C18.7127 13.1457 17.8707 14.079 16.812 15.137C15.754 16.1957 14.4 17.475 12.75 18.975L12 19.65ZM12 18.3C13.6 16.85 14.9167 15.6084 15.95 14.575C16.9833 13.5417 17.8 12.6457 18.4 11.887C19 11.129 19.4167 10.4584 19.65 9.87502C19.8833 9.29169 20 8.71669 20 8.15002C20 7.15002 19.6667 6.31669 19 5.65002C18.3333 4.98336 17.5 4.65002 16.5 4.65002C15.7 4.65002 14.9627 4.87902 14.288 5.33702C13.6127 5.79569 13.0167 6.47502 12.5 7.37502H11.5C10.9667 6.45836 10.3667 5.77502 9.7 5.32502C9.03333 4.87502 8.3 4.65002 7.5 4.65002C6.51667 4.65002 5.68767 4.98336 5.013 5.65002C4.33767 6.31669 4 7.15002 4 8.15002C4 8.71669 4.11667 9.29169 4.35 9.87502C4.58333 10.4584 5 11.129 5.6 11.887C6.2 12.6457 7.01667 13.5374 8.05 14.562C9.08333 15.5874 10.4 16.8334 12 18.3Z" fill="#000002"/>
</g>
</g>
</svg>
