<svg width="25" height="24" viewBox="0 0 25 24" fill="none" xmlns="http://www.w3.org/2000/svg">
<g id="local_shipping">
<mask id="mask0_8583_1554" style="mask-type:alpha" maskUnits="userSpaceOnUse" x="0" y="0" width="25" height="24">
<rect id="Bounding box" x="0.800049" width="24" height="24" fill="#D9D9D9"/>
</mask>
<g mask="url(#mask0_8583_1554)">
<path id="local_shipping_2" d="M6.50006 19.125C5.76673 19.125 5.14606 18.871 4.63806 18.363C4.12939 17.8543 3.87506 17.2333 3.87506 16.5H2.50006V6.625C2.50006 6.15833 2.65439 5.771 2.96306 5.463C3.27106 5.15433 3.65006 5 4.10006 5H17.3501V8.625H19.6501L23.1001 13.275V16.5H21.5001C21.5001 17.2333 21.2461 17.8543 20.7381 18.363C20.2294 18.871 19.6084 19.125 18.8751 19.125C18.1417 19.125 17.5211 18.871 17.0131 18.363C16.5044 17.8543 16.2501 17.2333 16.2501 16.5H9.10006C9.10006 17.2333 8.84606 17.8543 8.33806 18.363C7.82939 18.871 7.21673 19.125 6.50006 19.125ZM6.50006 18.125C6.95006 18.125 7.32939 17.9667 7.63806 17.65C7.94606 17.3333 8.10006 16.95 8.10006 16.5C8.10006 16.05 7.94606 15.6667 7.63806 15.35C7.32939 15.0333 6.95006 14.875 6.50006 14.875C6.05006 14.875 5.66673 15.0333 5.35006 15.35C5.03339 15.6667 4.87506 16.05 4.87506 16.5C4.87506 16.95 5.03339 17.3333 5.35006 17.65C5.66673 17.9667 6.05006 18.125 6.50006 18.125ZM3.50006 15.5H4.15006C4.28339 15.0667 4.57106 14.6877 5.01306 14.363C5.45439 14.0377 5.95006 13.875 6.50006 13.875C7.01673 13.875 7.50006 14.0333 7.95006 14.35C8.40006 14.6667 8.70006 15.05 8.85006 15.5H16.3501V6H4.10006C3.95006 6 3.81273 6.06267 3.68806 6.188C3.56273 6.31267 3.50006 6.45833 3.50006 6.625V15.5ZM18.8751 18.125C19.3251 18.125 19.7084 17.9667 20.0251 17.65C20.3417 17.3333 20.5001 16.95 20.5001 16.5C20.5001 16.05 20.3417 15.6667 20.0251 15.35C19.7084 15.0333 19.3251 14.875 18.8751 14.875C18.4251 14.875 18.0417 15.0333 17.7251 15.35C17.4084 15.6667 17.2501 16.05 17.2501 16.5C17.2501 16.95 17.4084 17.3333 17.7251 17.65C18.0417 17.9667 18.4251 18.125 18.8751 18.125ZM17.3501 13.5H22.0501L19.1001 9.625H17.3501V13.5Z" fill="#16A34A"/>
</g>
</g>
</svg>
