<svg width="24" height="24" viewBox="0 0 24 24" fill="none" xmlns="http://www.w3.org/2000/svg">
<g id="logout">
<mask id="mask0_7578_3238" style="mask-type:alpha" maskUnits="userSpaceOnUse" x="0" y="0" width="24" height="24">
<rect id="Bounding box" width="24" height="24" fill="#D9D9D9"/>
</mask>
<g mask="url(#mask0_7578_3238)">
<path id="logout_2" d="M5.80001 21C5.35001 21 4.97068 20.846 4.66201 20.538C4.35401 20.2293 4.20001 19.8417 4.20001 19.375V5.625C4.20001 5.15833 4.35401 4.771 4.66201 4.463C4.97068 4.15433 5.35001 4 5.80001 4H12.225V5H5.80001C5.65001 5 5.51268 5.06267 5.38801 5.188C5.26268 5.31267 5.20001 5.45833 5.20001 5.625V19.375C5.20001 19.5417 5.26268 19.6873 5.38801 19.812C5.51268 19.9373 5.65001 20 5.80001 20H12.225V21H5.80001ZM16.275 16.05L15.575 15.325L17.875 13H9.22501V12H17.875L15.575 9.675L16.275 8.95L19.8 12.5L16.275 16.05Z" fill="#000002"/>
</g>
</g>
</svg>
