<svg width="106" height="50" viewBox="0 0 106 50" fill="none" xmlns="http://www.w3.org/2000/svg">
<g id="Group 3">
<path id="path22" d="M7.34477 19.0085C8.41662 19.0085 9.33476 18.6394 10.0984 17.9024C10.8742 17.1537 11.2622 16.2624 11.2622 15.2272V12.0578C11.2622 11.0233 10.8742 10.1372 10.0984 9.39964C9.33476 8.6619 8.41662 8.2934 7.34477 8.2934H7.22472C6.14126 8.2934 5.2178 8.6619 4.45339 9.39964C3.68917 10.1372 3.30734 11.0233 3.30734 12.0578V15.2272C3.30734 16.2624 3.68917 17.1537 4.45339 17.9024C5.2178 18.6394 6.14126 19.0085 7.22472 19.0085H7.34477ZM14.4442 21.9466H14.461C14.461 23.84 13.7656 25.4578 12.3738 26.8009C10.9821 28.1434 9.30584 28.8147 7.34477 28.8147H7.22472C5.26289 28.8147 3.59271 28.1486 2.21247 26.8172C1.82455 26.4428 1.67083 26.0027 1.75112 25.4963C1.83064 24.9793 2.10383 24.599 2.57203 24.3576C3.27899 23.9832 3.90643 24.0658 4.45339 24.6049C5.2178 25.3537 6.14126 25.7273 7.22472 25.7273H7.34477C8.41662 25.7273 9.33476 25.3588 10.0984 24.6212C10.8742 23.8842 11.2622 22.9923 11.2622 21.9466H11.2447V20.9564C10.0586 21.7156 8.75869 22.0957 7.34477 22.0957H7.22472C5.26289 22.0957 3.58662 21.4246 2.19553 20.0815C0.803875 18.7382 0.108521 17.1204 0.108521 15.2272V12.0578C0.108521 10.1646 0.803875 8.54678 2.19553 7.20349C3.58662 5.86112 5.26289 5.1893 7.22472 5.1893H7.34477C8.78171 5.1893 10.1045 5.58057 11.3133 6.36183C11.507 5.58057 12.0203 5.1893 12.8528 5.1893C13.2974 5.1893 13.6737 5.34353 13.9821 5.65218C14.3012 5.94907 14.461 6.31225 14.461 6.74135V20.5436L14.4442 21.9466Z" fill="white"/>
<path id="path26" d="M7.22464 8.39807C6.176 8.39807 5.26947 8.75997 4.53017 9.47347C3.79068 10.1872 3.4157 11.0566 3.4157 12.0576V15.2271C3.4157 16.2287 3.79087 17.1041 4.53074 17.829C5.27023 18.5419 6.17676 18.9038 7.22464 18.9038H7.34488C8.38154 18.9038 9.28217 18.5419 10.0217 17.8283C10.7729 17.1032 11.1538 16.2281 11.1538 15.2271V12.0576C11.1538 11.0571 10.7731 10.1877 10.0222 9.47403C9.28293 8.75997 8.3823 8.39807 7.34488 8.39807H7.22464ZM7.34488 19.1132H7.22464C6.11721 19.1132 5.15913 18.7307 4.37683 17.9762C3.59491 17.2102 3.19882 16.2856 3.19882 15.2271V12.0576C3.19882 10.9989 3.59529 10.0796 4.37683 9.32549C5.15837 8.5714 6.11645 8.18894 7.22464 8.18894H7.34488C8.44204 8.18894 9.39423 8.5714 10.175 9.32549C10.9681 10.0794 11.3705 10.9989 11.3705 12.0576V15.2271C11.3705 16.2858 10.9683 17.2104 10.175 17.9762C9.39346 18.7307 8.44109 19.1132 7.34488 19.1132ZM3.40048 24.2318C3.15582 24.2318 2.89766 24.3043 2.62427 24.4492C2.18347 24.6763 1.93329 25.0237 1.85834 25.5114C1.78281 25.9877 1.92378 26.3905 2.28906 26.7431C3.64191 28.0481 5.30238 28.7099 7.22464 28.7099H7.34488C9.26695 28.7099 10.9331 28.0428 12.2972 26.7269C13.6354 25.4354 14.3264 23.8626 14.3519 22.0513H14.3513L14.3357 21.9455L14.3526 20.5424V6.74118C14.3526 6.33816 14.2067 6.00656 13.9069 5.72747C13.6143 5.4348 13.2705 5.29379 12.8527 5.29379C12.0701 5.29379 11.6009 5.65091 11.4188 6.3859L11.3825 6.53223L11.2529 6.44851C10.0673 5.68231 8.75233 5.29379 7.34488 5.29379H7.22464C5.30238 5.29379 3.6362 5.96121 2.27231 7.27732C0.908241 8.5938 0.216692 10.2022 0.216692 12.0576V15.2271C0.216692 17.0826 0.908241 18.691 2.27231 20.0075C3.63563 21.3236 5.30181 21.9912 7.22464 21.9912H7.34488C8.72969 21.9912 10.0217 21.6136 11.1846 20.869L11.353 20.7614V21.842L11.3705 21.9466C11.3705 23.0169 10.9681 23.9419 10.1744 24.6958C9.39423 25.4493 8.44204 25.8318 7.34488 25.8318H7.22464C6.11607 25.8318 5.1578 25.4438 4.37626 24.6782C4.07377 24.3804 3.75073 24.2318 3.40048 24.2318ZM7.34488 28.9192H7.22464C5.24284 28.9192 3.5308 28.2367 2.13572 26.891C1.72402 26.4937 1.55851 26.0191 1.64393 25.4804C1.7284 24.9308 2.02366 24.5217 2.52097 24.2651C3.27149 23.8677 3.9482 23.9575 4.53093 24.5317C5.26985 25.2554 6.17619 25.6227 7.22464 25.6227H7.34488C8.3823 25.6227 9.28293 25.2608 10.0217 24.5473C10.7488 23.8565 11.1287 23.015 11.1525 22.0441L11.1361 21.9466V21.1481C9.98114 21.8466 8.70667 22.2004 7.34488 22.2004H7.22464C5.24227 22.2004 3.52452 21.5122 2.11898 20.1553C0.712857 18.7983 0 17.1403 0 15.2271V12.0576C0 10.1446 0.712857 8.48657 2.11898 7.12952C3.52509 5.77246 5.24265 5.08466 7.22464 5.08466H7.34488C8.74643 5.08466 10.0588 5.45812 11.2478 6.19513C11.4801 5.45794 12.0194 5.08466 12.8527 5.08466C13.3257 5.08466 13.7319 5.25119 14.06 5.57948C14.3972 5.89291 14.5695 6.28473 14.5695 6.74118V20.5437L14.5537 21.842H14.5695V21.9466C14.5695 23.8596 13.8565 25.5178 12.4506 26.8749C11.0442 28.2314 9.32631 28.9192 7.34488 28.9192Z" fill="white"/>
<path id="path30" d="M24.3316 5.09018C24.7763 5.09018 25.1526 5.24442 25.4602 5.55251C25.78 5.84996 25.9392 6.21332 25.9392 6.64223C25.9392 7.07133 25.78 7.43469 25.4602 7.73214C25.1526 8.02904 24.7763 8.17739 24.3316 8.17739H24.3141C23.2307 8.17739 22.3072 8.55177 21.5428 9.30053C20.7792 10.0383 20.3968 10.9242 20.3968 11.9581V20.3782C20.3968 20.8079 20.243 21.1764 19.9354 21.4843C19.6156 21.7819 19.2391 21.9303 18.8061 21.9303C18.3615 21.9303 17.9791 21.7819 17.6599 21.4843C17.3517 21.1764 17.1979 20.8079 17.1979 20.3782V6.60919C17.1979 6.18009 17.3517 5.81672 17.6599 5.51983C17.9791 5.21192 18.3615 5.05768 18.8061 5.05768C19.1824 5.05768 19.5131 5.17281 19.7984 5.40397C20.083 5.62467 20.2712 5.91055 20.3631 6.26271C21.5489 5.48145 22.8658 5.09018 24.3141 5.09018H24.3316Z" fill="white"/>
<path id="path34" d="M18.8061 5.1623C18.3931 5.1623 18.0333 5.30754 17.7367 5.59378C17.447 5.87268 17.3062 6.20483 17.3062 6.60914V20.3784C17.3062 20.7834 17.4475 21.1215 17.7378 21.4116C18.0316 21.6857 18.3919 21.8258 18.8061 21.8258C19.2142 21.8258 19.5589 21.6895 19.8601 21.409C20.1473 21.1215 20.2883 20.7832 20.2883 20.3784V11.9582C20.2883 10.9005 20.6846 9.98168 21.4663 9.22668C22.2477 8.46121 23.2059 8.07288 24.3141 8.07288C24.7506 8.07288 25.0945 7.93719 25.3837 7.65829C25.685 7.37773 25.8308 7.04595 25.8308 6.64238C25.8308 6.2388 25.685 5.90702 25.385 5.62793C25.093 5.33563 24.7492 5.1948 24.3316 5.1948H24.3141C22.8956 5.1948 21.5869 5.58313 20.4241 6.34915L20.2957 6.4338L20.2579 6.28838C20.1713 5.95605 19.9989 5.69348 19.7305 5.48545C19.4613 5.26751 19.1596 5.1623 18.8061 5.1623ZM18.8061 22.0349C18.3337 22.0349 17.9228 21.875 17.5847 21.5595C17.2552 21.2305 17.0895 20.8339 17.0895 20.3784V6.60914C17.0895 6.15287 17.2556 5.76142 17.5836 5.44598C17.9222 5.11878 18.3335 4.95317 18.8061 4.95317C19.2069 4.95317 19.5644 5.07784 19.868 5.32388C20.1298 5.52676 20.3174 5.78675 20.4255 6.09669C21.5938 5.35931 22.9012 4.98549 24.3141 4.98549H24.3316C24.8046 4.98549 25.2106 5.15183 25.5384 5.47994C25.8753 5.79337 26.0477 6.18556 26.0477 6.64238C26.0477 7.0992 25.8753 7.49139 25.5355 7.80774C25.2098 8.1219 24.8042 8.28201 24.3316 8.28201C23.2662 8.28201 22.3599 8.64941 21.62 9.37394C20.8802 10.0887 20.5052 10.9581 20.5052 11.9582V20.3784C20.5052 20.8337 20.3397 21.2303 20.0134 21.5568C19.6717 21.875 19.2665 22.0349 18.8061 22.0349Z" fill="white"/>
<path id="path38" d="M64.6688 15.0957C64.6688 16.1413 65.0512 17.0326 65.8148 17.7701C66.5793 18.5072 67.5027 18.8764 68.5862 18.8764H68.7062C69.7781 18.8764 70.6962 18.5072 71.4606 17.7701C72.2357 17.0326 72.6236 16.1413 72.6236 15.0957V11.942C72.6236 10.8964 72.2357 10.0051 71.4606 9.26737C70.6962 8.53055 69.7781 8.16131 68.7062 8.16131H68.5862C67.5027 8.16131 66.5793 8.53055 65.8148 9.26737C65.0512 10.0051 64.6688 10.8964 64.6688 11.942V15.0957ZM63.0781 28.4189C62.6335 28.4189 62.2511 28.2704 61.9319 27.973C61.6237 27.6649 61.47 27.2964 61.47 26.8667V6.60925C61.47 6.19118 61.6237 5.828 61.9319 5.5199C62.2511 5.22245 62.6335 5.0741 63.0781 5.0741C63.899 5.0741 64.4125 5.46463 64.6174 6.24589C65.8148 5.46463 67.1378 5.0741 68.5862 5.0741H68.7062C70.6673 5.0741 72.3443 5.74519 73.7352 7.08829C75.1269 8.43085 75.8224 10.0494 75.8224 11.942V15.0957C75.8224 16.9883 75.1269 18.6069 73.7352 19.9492C72.3443 21.2925 70.6673 21.9636 68.7062 21.9636H68.5862C67.1606 21.9636 65.8548 21.5835 64.6688 20.8243V26.8667C64.6688 27.2964 64.5151 27.6649 64.2074 27.973C63.8876 28.2704 63.5111 28.4189 63.0781 28.4189Z" fill="white"/>
<path id="path42" d="M68.5861 8.26598C67.5382 8.26598 66.6313 8.62788 65.8914 9.34138C65.1519 10.0558 64.777 10.9307 64.777 11.942V15.0957C64.777 16.107 65.1519 16.9819 65.8914 17.6962C66.6317 18.4099 67.5382 18.7718 68.5861 18.7718H68.7061C69.7428 18.7718 70.6436 18.4099 71.3839 17.6962C72.1348 16.9817 72.5153 16.107 72.5153 15.0957V11.942C72.5153 10.9307 72.1348 10.056 71.3844 9.34193C70.6438 8.62788 69.7428 8.26598 68.7061 8.26598H68.5861ZM68.7061 18.9811H68.5861C67.4787 18.9811 66.5204 18.5986 65.7383 17.8442C64.9566 17.0892 64.5603 16.1645 64.5603 15.0957V11.942C64.5603 10.8734 64.9566 9.94858 65.7383 9.1934C66.5202 8.43931 67.4785 8.05667 68.5861 8.05667H68.7061C69.8025 8.05667 70.7551 8.43931 71.537 9.1934C72.3298 9.94785 72.732 10.8727 72.732 11.942V15.0957C72.732 16.165 72.3298 17.0901 71.5365 17.8447C70.7549 18.5986 69.8023 18.9811 68.7061 18.9811ZM63.0781 5.17859C62.6637 5.17859 62.3036 5.31887 62.0073 5.59502C61.7195 5.88273 61.5783 6.21543 61.5783 6.60909V26.8669C61.5783 27.272 61.7195 27.6102 62.0098 27.9001C62.3036 28.174 62.6639 28.3143 63.0781 28.3143C63.4859 28.3143 63.8307 28.1779 64.1322 27.8975C64.4193 27.61 64.5603 27.272 64.5603 26.8669V20.6293L64.7286 20.7369C65.8914 21.4815 67.1895 21.8591 68.5861 21.8591H68.7061C70.6292 21.8591 72.2952 21.1915 73.6587 19.8754C75.0225 18.5595 75.7141 16.9514 75.7141 15.0957V11.942C75.7141 10.0863 75.0225 8.47824 73.6587 7.16231C72.2953 5.84601 70.6294 5.17859 68.7061 5.17859H68.5861C67.1667 5.17859 65.8519 5.56692 64.6782 6.33257L64.5504 6.41612L64.5123 6.27162C64.3192 5.53626 63.8503 5.17859 63.0781 5.17859ZM63.0781 28.5234C62.6057 28.5234 62.1947 28.3635 61.8565 28.0481C61.5273 27.719 61.3615 27.3226 61.3615 26.8669V6.60909C61.3615 6.16475 61.5272 5.77385 61.854 5.44721C62.1947 5.12938 62.6057 4.96946 63.0781 4.96946C63.9007 4.96946 64.4393 5.34274 64.6811 6.07974C65.8595 5.34274 67.1726 4.96946 68.5861 4.96946H68.7061C70.6887 4.96946 72.4066 5.65744 73.812 7.01432C75.2179 8.37082 75.931 10.0288 75.931 11.942V15.0957C75.931 17.0089 75.2179 18.6669 73.812 20.0232C72.4066 21.3801 70.6885 22.0683 68.7061 22.0683H68.5861C67.2129 22.0683 65.9327 21.7145 64.777 21.016V26.8669C64.777 27.3223 64.6116 27.7189 64.2854 28.0453C63.9435 28.3635 63.5383 28.5234 63.0781 28.5234Z" fill="white"/>
<path id="path46" d="M79.2265 21.4844C78.9188 21.1765 78.7651 20.808 78.7651 20.3784V6.62601C78.7651 6.19637 78.9188 5.83319 79.2265 5.53629C79.5455 5.2394 79.9281 5.09031 80.3725 5.09031C80.8063 5.09031 81.182 5.2394 81.5018 5.53629C81.8094 5.83319 81.9639 6.19637 81.9639 6.62601V20.3784C81.9639 20.808 81.8094 21.1765 81.5018 21.4844C81.182 21.7819 80.8063 21.9304 80.3725 21.9304C79.9281 21.9304 79.5455 21.7819 79.2265 21.4844ZM81.6388 3.07648C81.2853 3.41762 80.863 3.5882 80.3725 3.5882C79.8706 3.5882 79.443 3.41762 79.0895 3.07648C78.736 2.73533 78.5593 2.3279 78.5593 1.85456C78.5593 1.37038 78.736 0.957623 79.0895 0.616293C79.443 0.27533 79.8706 0.104389 80.3725 0.104389C80.863 0.104389 81.2853 0.27533 81.6388 0.616293C81.9923 0.957623 82.169 1.37038 82.169 1.85456C82.169 2.3279 81.9923 2.73533 81.6388 3.07648Z" fill="white"/>
<path id="path50" d="M80.3726 0.209187C79.8964 0.209187 79.5018 0.366541 79.166 0.690245C78.8306 1.0145 78.6677 1.3953 78.6677 1.85451C78.6677 2.29719 78.8354 2.68332 79.166 3.00262C79.5016 3.32632 79.8962 3.48368 80.3726 3.48368C80.8375 3.48368 81.2266 3.32632 81.5622 3.00262C81.8928 2.68351 82.0604 2.29719 82.0604 1.85451C82.0604 1.39512 81.8976 1.01413 81.5622 0.690245C81.2264 0.366541 80.8373 0.209187 80.3726 0.209187ZM80.3726 3.69281C79.8433 3.69281 79.3857 3.51049 79.0127 3.15061C78.64 2.79055 78.4509 2.35448 78.4509 1.85451C78.4509 1.34426 78.64 0.902681 79.0127 0.542255C79.3859 0.182381 79.8435 5.53131e-05 80.3726 5.53131e-05C80.8904 5.53131e-05 81.3422 0.182381 81.7155 0.542255C82.0882 0.902496 82.2773 1.34408 82.2773 1.85451C82.2773 2.35485 82.0882 2.79074 81.7155 3.15061C81.3424 3.51049 80.8906 3.69281 80.3726 3.69281ZM79.303 21.4104C79.599 21.686 79.959 21.8259 80.3726 21.8259C80.7808 21.8259 81.1254 21.6895 81.4265 21.4093C81.7144 21.1208 81.8555 20.783 81.8555 20.3783V6.62616C81.8555 6.22203 81.7148 5.8897 81.4252 5.61024C81.1246 5.33116 80.7799 5.19492 80.3726 5.19492C79.9591 5.19492 79.5988 5.33501 79.3015 5.61171C79.014 5.88915 78.8734 6.22148 78.8734 6.62616V20.3783C78.8734 20.7828 79.014 21.1205 79.303 21.4104ZM80.3726 22.035C79.9 22.035 79.489 21.8751 79.151 21.5597L79.1483 21.5569C78.822 21.2305 78.6567 20.8339 78.6567 20.3783V6.62616C78.6567 6.1697 78.8226 5.77806 79.1496 5.46226C79.4902 5.14553 79.9011 4.98561 80.3726 4.98561C80.8322 4.98561 81.2374 5.14553 81.577 5.46079C81.9061 5.77861 82.0724 6.17007 82.0724 6.62616V20.3783C82.0724 20.8335 81.9065 21.2299 81.5799 21.5569C81.2384 21.8751 80.833 22.035 80.3726 22.035Z" fill="white"/>
<path id="path54" d="M88.1048 11.9751H96.0421C96.0305 10.9407 95.6487 10.0492 94.8958 9.30066C94.1208 8.56291 93.2026 8.19441 92.1422 8.19441H92.0222C90.9387 8.19441 90.0152 8.56291 89.2508 9.30066C88.4866 10.0382 88.1048 10.9243 88.1048 11.9582V11.9751ZM99.2584 11.9582C99.2584 12.5201 99.11 13.0369 98.814 13.5103C98.198 14.5337 97.2798 15.0462 96.0596 15.0462L88.1048 15.0623C88.1048 16.108 88.4866 17 89.2508 17.737C90.0152 18.4745 90.9387 18.843 92.0222 18.843H92.1422C93.465 18.843 94.5201 18.3203 95.3068 17.2746C95.7628 16.6693 96.3617 16.4934 97.1031 16.746C97.6158 16.9115 97.9524 17.2414 98.1124 17.737C98.2716 18.2435 98.1919 18.7057 97.8728 19.1238C96.4467 20.9947 94.537 21.9304 92.1422 21.9304H92.0222C90.0719 21.9304 88.4016 21.2643 87.0099 19.9329C85.6297 18.612 84.9288 17.0104 84.9058 15.1282V11.9582C84.9058 10.0656 85.6013 8.45293 86.993 7.12084C88.3841 5.77829 90.0603 5.1072 92.0222 5.1072H92.1422C94.1261 5.1072 95.814 5.78949 97.2056 7.15408C97.8667 7.80387 98.3747 8.54657 98.7282 9.38328C98.9219 9.83441 99.0588 10.3019 99.1384 10.7862C99.2179 11.1716 99.2584 11.5624 99.2584 11.9582Z" fill="white"/>
<path id="path58" d="M88.2143 11.8706H95.9311C95.8955 10.9127 95.5215 10.0731 94.8181 9.37351C94.0693 8.6611 93.1685 8.29902 92.1421 8.29902H92.0221C90.9736 8.29902 90.0671 8.66092 89.3274 9.37461C88.6098 10.0672 88.2354 10.9066 88.2143 11.8706ZM96.1514 12.0799H87.9964V11.9582C87.9964 10.8999 88.3927 9.98089 89.1741 9.22662C89.956 8.47235 90.9143 8.08989 92.0221 8.08989H92.1421C93.2275 8.08989 94.1797 8.47217 94.9719 9.22607C95.7429 9.99264 96.1386 10.9166 96.1504 11.9742L96.1514 12.0799ZM92.0221 5.21181C90.0992 5.21181 88.4331 5.87905 87.0695 7.19498C85.7057 8.50026 85.0143 10.103 85.0143 11.9582V15.1284C85.0368 16.9724 85.7338 18.5643 87.0863 19.8585C88.4507 21.164 90.1114 21.8257 92.0221 21.8257H92.1421C94.4888 21.8257 96.3877 20.8959 97.7856 19.0618C98.0858 18.6684 98.1587 18.245 98.0086 17.7674C97.8587 17.3027 97.551 17.0008 97.0688 16.8455C96.3698 16.6074 95.8226 16.7678 95.3944 17.3363C94.5898 18.4054 93.4957 18.9476 92.1421 18.9476H92.0221C90.9141 18.9476 89.9558 18.5652 89.1741 17.8109C88.3927 17.0574 87.9964 16.1325 87.9964 15.0625V14.9582L96.0593 14.9415C97.2491 14.9415 98.1193 14.4564 98.7201 13.4577C99.0057 13.0013 99.1501 12.4974 99.1501 11.9582C99.1501 11.5733 99.1105 11.1857 99.0321 10.8068C98.9535 10.3297 98.8179 9.86576 98.628 9.42345C98.282 8.60418 97.7776 7.86552 97.1285 7.22729C95.7642 5.88988 94.0866 5.21181 92.1421 5.21181H92.0221ZM92.1421 22.035H92.0221C90.0521 22.035 88.3402 21.3527 86.9337 20.0073C85.5394 18.6726 84.8206 17.0317 84.7974 15.1295V11.9582C84.7974 10.045 85.5105 8.39266 86.9166 7.04662C88.3218 5.6903 90.0399 5.0025 92.0221 5.0025H92.1421C94.1468 5.0025 95.8765 5.70168 97.283 7.08078C97.9521 7.73846 98.472 8.49989 98.8286 9.34394C99.0247 9.80077 99.1651 10.2807 99.2456 10.7699C99.3259 11.1584 99.367 11.5596 99.367 11.9582C99.367 12.536 99.2121 13.0765 98.9066 13.5644C98.2736 14.6165 97.3153 15.1508 96.0595 15.1508L88.2145 15.1669C88.2394 16.1353 88.6136 16.9746 89.3274 17.6629C90.0669 18.3766 90.9734 18.7385 92.0221 18.7385H92.1421C93.4223 18.7385 94.4576 18.2251 95.219 17.2133C95.7041 16.5692 96.35 16.3786 97.1393 16.6474C97.6829 16.8227 98.0459 17.1791 98.2158 17.7059C98.3849 18.2442 98.2987 18.742 97.9601 19.186C96.5191 21.0762 94.5617 22.035 92.1421 22.035Z" fill="white"/>
<path id="path78" d="M25.09 13.6251C25.09 18.8709 29.5119 23.1383 34.9473 23.1383C37.5957 23.1383 40.0018 22.1233 41.7745 20.4771L41.3824 19.8666C39.7307 21.4526 37.4557 22.4345 34.9473 22.4345C29.9141 22.4345 25.8194 18.4829 25.8194 13.6251C25.8194 8.76774 29.9141 4.81573 34.9473 4.81573C39.8393 4.81573 43.8585 8.49894 44.0799 13.1661H44.075C44.075 13.2304 44.0828 13.293 44.0849 13.3567C44.0868 13.4283 44.0906 13.4995 44.0906 13.5717C44.0906 13.6053 44.0957 13.6481 44.1028 13.6944C44.1127 13.7935 44.1307 13.8903 44.1462 13.9879C44.1484 14.012 44.1517 14.0381 44.1509 14.0575L44.1572 14.0568C44.5999 16.6385 46.923 18.6155 49.7215 18.6155C52.8351 18.6155 55.3681 16.1711 55.3681 13.1661V4.46393H54.6387V13.1661C54.6387 15.7829 52.433 17.9117 49.7215 17.9117C47.2738 17.9117 45.2441 16.1747 44.8712 13.9123C44.8664 13.8517 44.855 13.786 44.8404 13.7179C44.8185 13.5366 44.8042 13.353 44.8042 13.1661H44.7949C44.6244 8.06929 40.2748 4.11196 34.9473 4.11196C29.5119 4.11196 25.09 8.37959 25.09 13.6251Z" fill="url(#paint0_linear_8554_1009)"/>
<path id="path98" d="M58.8494 4.46397V13.1661C58.8494 18.0237 54.7549 21.9754 49.7216 21.9754C44.9406 21.9754 41.0094 18.4093 40.627 13.8888L40.6277 13.8719C40.6315 13.7901 40.6344 13.708 40.6344 13.6254C40.6344 10.5989 38.0832 8.13672 34.9471 8.13672C31.8113 8.13672 29.2601 10.5989 29.2601 13.6254C29.2601 16.6518 31.8113 19.1142 34.9471 19.1142C36.421 19.1142 37.8201 18.5687 38.8864 17.5786L38.9811 17.4907L38.5843 16.8727L38.4391 17.012C37.5033 17.9106 36.2631 18.4056 34.9471 18.4056C32.2161 18.4056 29.9942 16.2613 29.9942 13.6254C29.9942 10.9893 32.2161 8.84471 34.9471 8.84471C37.5178 8.84471 39.636 10.7449 39.8763 13.1661H39.8645C39.8645 13.4001 39.8763 13.6314 39.8936 13.8611L39.8886 13.9773L39.9029 13.9786C40.3317 18.845 44.5702 22.6793 49.7216 22.6793C55.1569 22.6793 59.5787 18.4117 59.5787 13.1661V4.46397H58.8494Z" fill="url(#paint1_linear_8554_1009)"/>
<path id="path118" d="M56.9913 4.46386V13.166C56.9913 16.9469 53.8041 20.0231 49.8865 20.0231C45.9687 20.0231 42.7815 16.9469 42.7815 13.166H42.7654C42.7429 10.8162 41.6003 8.71075 39.6198 7.3816C37.4592 5.93127 34.6835 5.65034 32.004 6.60989C29.9994 7.32798 28.4228 8.84955 27.6784 10.7842C26.7296 13.2512 27.0401 15.8515 28.5299 17.9193C29.994 19.951 32.3931 21.1641 34.9471 21.1641C36.9716 21.1641 38.8931 20.4149 40.3578 19.0549L40.4051 19.0109L40.0089 18.3943L39.9364 18.4639C37.9447 20.3769 35.0111 20.9582 32.2801 19.9809C30.4668 19.3322 29.0401 17.9582 28.3663 16.211C27.5024 13.9728 27.7813 11.6132 29.1313 9.73785C30.4575 7.89533 32.6316 6.79533 34.9471 6.79533C38.7348 6.79533 41.8398 9.62677 42.0531 13.1941C42.069 17.3503 45.5764 20.7269 49.8865 20.7269C54.2065 20.7269 57.7207 17.3351 57.7207 13.166V4.46386H56.9913Z" fill="url(#paint2_linear_8554_1009)"/>
<path id="path130" d="M40.1584 46.7318C40.614 46.7318 40.9996 46.8842 41.3153 47.1886C41.6423 47.5044 41.8061 47.8766 41.8061 48.3051C41.8061 48.7449 41.6423 49.1231 41.3153 49.4386C40.9996 49.743 40.614 49.8954 40.1584 49.8954H40.1409C38.1309 49.8954 36.413 49.2076 34.9874 47.8314C33.5615 46.4556 32.8489 44.7977 32.8489 42.8578V27.6155C32.8489 27.1869 33.0066 26.8148 33.322 26.4988C33.6492 26.1943 34.0408 26.0421 34.4966 26.0421C34.9405 26.0421 35.3261 26.1943 35.6535 26.4988C35.9689 26.8148 36.1268 27.1869 36.1268 27.6155V32.8597H38.7736C39.2294 32.8597 39.615 33.0119 39.9306 33.3165C40.2575 33.621 40.4213 33.9931 40.4213 34.4329C40.4213 34.8728 40.2575 35.245 39.9306 35.5496C39.615 35.8654 39.2294 36.0231 38.7736 36.0231H36.1268V42.8578C36.1268 43.9294 36.5182 44.8428 37.3012 45.5984C38.0839 46.3541 39.0306 46.7318 40.1409 46.7318H40.1584Z" fill="white"/>
<path id="path134" d="M34.4965 26.1466C34.066 26.1466 33.7066 26.2863 33.3975 26.5742C33.1022 26.8699 32.9572 27.2114 32.9572 27.6155V42.8578C32.9572 44.7604 33.6661 46.4088 35.064 47.7575C36.4618 49.1066 38.1698 49.7907 40.141 49.7907C40.5882 49.7907 40.9415 49.6514 41.2387 49.3648C41.5433 49.0706 41.6978 48.7142 41.6978 48.3052C41.6978 47.902 41.5475 47.561 41.2385 47.2624C40.9415 46.9758 40.5882 46.8365 40.1585 46.8365H40.141C39.0058 46.8365 38.0247 46.4448 37.2247 45.6722C36.4243 44.9003 36.0183 43.9533 36.0183 42.8578V35.9185H38.7737C39.2029 35.9185 39.5556 35.774 39.8526 35.4769C40.1632 35.1874 40.313 34.8468 40.313 34.4329C40.313 34.0191 40.1632 33.6785 39.8552 33.3917C39.5569 33.1038 39.2036 32.9644 38.7737 32.9644H36.0183V27.6155C36.0183 27.2114 35.8735 26.8699 35.5754 26.5715C35.2689 26.2865 34.9151 26.1466 34.4965 26.1466ZM40.1585 49.9999C38.1101 49.9999 36.3505 49.2952 34.9109 47.9054C33.4707 46.5161 32.7405 44.8177 32.7405 42.8578V27.6155C32.7405 27.1611 32.91 26.761 33.2441 26.4263C33.5936 26.1011 34.0139 25.9375 34.4965 25.9375C34.9674 25.9375 35.3819 26.1011 35.7288 26.4235C36.0657 26.761 36.2352 27.1611 36.2352 27.6155V32.7553H38.7737C39.2573 32.7553 39.6722 32.9191 40.0072 33.2426C40.3535 33.565 40.5298 33.9658 40.5298 34.4329C40.5298 34.9 40.3535 35.301 40.0059 35.6247C39.6733 35.9576 39.258 36.1278 38.7737 36.1278H36.2352V42.8578C36.2352 43.8958 36.6197 44.7929 37.3778 45.5242C38.1358 46.2563 39.0653 46.6272 40.141 46.6272H40.1585C40.6417 46.6272 41.0568 46.7911 41.392 47.1145C41.7387 47.4495 41.9145 47.8504 41.9145 48.3052C41.9145 48.7715 41.7387 49.178 41.392 49.5126C41.0568 49.8361 40.6417 49.9999 40.1585 49.9999Z" fill="white"/>
<path id="path138" d="M44.9438 49.4386C44.6282 49.1229 44.4705 48.7449 44.4705 48.3051V34.2129C44.4705 33.7732 44.6282 33.401 44.9438 33.0964C45.2708 32.7918 45.6626 32.6398 46.1182 32.6398C46.5622 32.6398 46.9479 32.7918 47.2751 33.0964C47.5907 33.401 47.7484 33.7732 47.7484 34.2129V48.3051C47.7484 48.7449 47.5907 49.1229 47.2751 49.4386C46.9479 49.743 46.5622 49.8954 46.1182 49.8954C45.6626 49.8954 45.2708 49.743 44.9438 49.4386ZM47.4153 30.5758C47.0531 30.9256 46.6207 31.1002 46.1182 31.1002C45.6038 31.1002 45.1656 30.9256 44.8036 30.5758C44.4412 30.2264 44.2603 29.8089 44.2603 29.3238C44.2603 28.8278 44.4412 28.4048 44.8036 28.055C45.1656 27.7056 45.6038 27.5306 46.1182 27.5306C46.6207 27.5306 47.0531 27.7056 47.4153 28.055C47.7775 28.4048 47.9589 28.8278 47.9589 29.3238C47.9589 29.8089 47.7775 30.2264 47.4153 30.5758Z" fill="white"/>
<path id="path142" d="M46.1183 27.6353C45.6364 27.6353 45.2199 27.8014 44.8803 28.1292C44.536 28.4613 44.3685 28.8522 44.3685 29.3237C44.3685 29.7846 44.536 30.1698 44.8803 30.502C45.2241 30.8341 45.6289 30.9955 46.1183 30.9955C46.5954 30.9955 46.9945 30.8341 47.3387 30.502C47.6783 30.1744 47.8505 29.778 47.8505 29.3237C47.8505 28.859 47.6783 28.4571 47.3387 28.1292C46.9989 27.8014 46.5882 27.6353 46.1183 27.6353ZM46.1183 31.2048C45.5762 31.2048 45.108 31.0181 44.727 30.6498C44.3453 30.2818 44.1519 29.8358 44.1519 29.3237C44.1519 28.8014 44.3453 28.3495 44.727 27.9812C45.1088 27.6129 45.5768 27.4261 46.1183 27.4261C46.6479 27.4261 47.11 27.6129 47.492 27.9812C47.8737 28.3497 48.0673 28.8015 48.0673 29.3237C48.0673 29.8355 47.8737 30.2816 47.492 30.6498C47.1106 31.0181 46.6483 31.2048 46.1183 31.2048ZM45.0205 49.3647C45.3247 49.6473 45.694 49.7907 46.1183 49.7907C46.537 49.7907 46.8908 49.651 47.1998 49.3632C47.4909 49.072 47.64 48.7151 47.64 48.3051V34.2131C47.64 33.7983 47.4956 33.4572 47.1985 33.1705C46.8908 32.8841 46.537 32.7444 46.1183 32.7444C45.6934 32.7444 45.3236 32.8881 45.019 33.1718C44.7234 33.4571 44.579 33.7983 44.579 34.2131V48.3051C44.579 48.7144 44.7274 49.0709 45.0205 49.3647ZM46.1183 50C45.6354 50 45.215 49.8364 44.8685 49.5138L44.8659 49.5112C44.5316 49.1769 44.3621 48.7711 44.3621 48.3051V34.2131C44.3621 33.7463 44.532 33.3459 44.8672 33.0225C45.2148 32.6988 45.6352 32.5351 46.1183 32.5351C46.5891 32.5351 47.0039 32.6988 47.3505 33.0213C47.6868 33.3459 47.8567 33.7463 47.8567 34.2131V48.3051C47.8567 48.7711 47.6874 49.1769 47.3531 49.5112C47.0037 49.8364 46.5891 50 46.1183 50Z" fill="white"/>
<path id="path146" d="M62.2272 43.4837C62.7762 43.4837 63.2203 43.7037 63.5595 44.1435C63.8863 44.5722 63.9624 45.0402 63.7874 45.5477C63.3428 46.8223 62.5483 47.8597 61.4032 48.6604C60.2465 49.4837 58.9494 49.8954 57.5119 49.8954H57.4069C55.5717 49.8954 54.0062 49.2695 52.7089 48.0176C51.4118 46.7656 50.7632 45.2545 50.7632 43.4837V39.0343C50.7632 37.2752 51.4118 35.7694 52.7089 34.5175C54.0062 33.2657 55.5717 32.6398 57.4069 32.6398H57.5119C58.9494 32.6398 60.2465 33.0457 61.4032 33.8576C62.5483 34.6587 63.3428 35.7016 63.7874 36.9875C63.9624 37.4839 63.8863 37.9518 63.5595 38.3917C63.2203 38.8202 62.7762 39.0343 62.2272 39.0343C61.4439 39.0343 60.9303 38.6906 60.6846 38.0026C60.4626 37.3486 60.0593 36.8184 59.4751 36.4122C58.8906 36.0062 58.2364 35.8034 57.5119 35.8034H57.4069C56.4718 35.8034 55.6771 36.1192 55.0227 36.7506C54.3682 37.3824 54.0412 38.1436 54.0412 39.0343V43.4837C54.0412 44.386 54.3682 45.1529 55.0227 45.7846C55.6771 46.4162 56.4718 46.7318 57.4069 46.7318H57.5119C58.2364 46.7318 58.8906 46.5234 59.4751 46.1059C60.0593 45.6997 60.4626 45.1753 60.6846 44.5325C60.9303 43.8333 61.4439 43.4837 62.2272 43.4837Z" fill="white"/>
<path id="path150" d="M57.4068 32.7444C55.6103 32.7444 54.0554 33.3659 52.7857 34.5917C51.5156 35.8173 50.8717 37.312 50.8717 39.0345V43.4837C50.8717 45.2172 51.5156 46.7178 52.7857 47.9438C54.0556 49.1692 55.6105 49.7907 57.4068 49.7907H57.5119C58.9191 49.7907 60.2067 49.3822 61.3389 48.5763C62.4608 47.7917 63.2497 46.7617 63.6846 45.5144C63.8492 45.037 63.7798 44.6087 63.4723 44.2055C63.1519 43.7905 62.7446 43.5884 62.2271 43.5884C61.4892 43.5884 61.0183 43.9082 60.7874 44.5661C60.5592 45.2265 60.139 45.7733 59.5384 46.1908C58.9393 46.619 58.2569 46.8364 57.5119 46.8364H57.4068C56.4463 46.8364 55.6183 46.5074 54.9462 45.8583C54.2739 45.2098 53.9329 44.4109 53.9329 43.4837V39.0345C53.9329 38.1188 54.2739 37.3256 54.9462 36.6767C55.6185 36.0279 56.4463 35.6988 57.4068 35.6988H57.5119C58.2563 35.6988 58.938 35.9104 59.5384 36.3271C60.139 36.7449 60.5594 37.2975 60.7879 37.9701C61.0179 38.6153 61.4888 38.9298 62.2271 38.9298C62.7456 38.9298 63.1531 38.733 63.4733 38.3281C63.7796 37.9159 63.8494 37.4877 63.6846 37.0212C63.2497 35.7625 62.4608 34.727 61.3396 33.9426C60.2071 33.1476 58.9193 32.7444 57.5119 32.7444H57.4068ZM57.5119 50H57.4068C55.5508 50 53.9445 49.3579 52.6324 48.0916C51.3203 46.825 50.655 45.2748 50.655 43.4837V39.0345C50.655 37.2544 51.3203 35.7099 52.6324 34.4437C53.9443 33.1773 55.5508 32.5352 57.4068 32.5352H57.5119C58.9661 32.5352 60.2967 32.9519 61.4669 33.7731C62.6255 34.5838 63.4407 35.654 63.8903 36.9544C64.0762 37.4813 63.9945 37.9857 63.6475 38.4524C63.2866 38.9089 62.8095 39.1391 62.2271 39.1391C61.3965 39.1391 60.8431 38.7682 60.5823 38.0367C60.368 37.4055 59.9742 36.8883 59.4117 36.497C58.8489 36.1063 58.2097 35.9082 57.5119 35.9082H57.4068C56.506 35.9082 55.7296 36.2164 55.0995 36.8247C54.4692 37.433 54.1496 38.1763 54.1496 39.0345V43.4837C54.1496 44.3535 54.4692 45.1026 55.0995 45.7105C55.7294 46.3186 56.5058 46.6273 57.4068 46.6273H57.5119C58.2095 46.6273 58.8484 46.4235 59.4105 46.0217C59.9746 45.6297 60.3682 45.1178 60.5819 44.4994C60.8429 43.7558 61.3963 43.379 62.2271 43.379C62.8097 43.379 63.2872 43.6153 63.6466 44.081C63.9942 44.5371 64.0762 45.0414 63.8903 45.5809C63.4405 46.8704 62.6253 47.9349 61.4667 48.7452C60.2973 49.5777 58.9665 50 57.5119 50Z" fill="white"/>
<path id="path154" d="M77.6352 47.3917C77.9038 47.7299 78.009 48.1136 77.9506 48.542C77.892 48.9707 77.6816 49.3146 77.3195 49.5739C76.9691 49.8335 76.5715 49.9347 76.1276 49.8783C75.6834 49.8223 75.3271 49.6191 75.0585 49.2695L70.1328 43.01V48.3051C70.1328 48.7449 69.9749 49.1231 69.6594 49.4386C69.3322 49.743 68.9466 49.8954 68.5025 49.8954C68.0469 49.8954 67.655 49.743 67.3281 49.4386C67.0127 49.1231 66.8548 48.7449 66.8548 48.3051V27.5646C66.8548 27.1247 67.0127 26.7525 67.3281 26.4479C67.655 26.1325 68.0469 25.9744 68.5025 25.9744C68.9466 25.9744 69.3322 26.1325 69.6594 26.4479C69.9749 26.7525 70.1328 27.1247 70.1328 27.5646V37.8333L74.8478 33.2828C75.1635 32.9782 75.5491 32.8259 76.0049 32.8259C76.4488 32.8259 76.8287 32.9782 77.1443 33.2828C77.4598 33.5872 77.6175 33.9537 77.6175 34.3824C77.6175 34.8109 77.4598 35.1772 77.1443 35.4819L72.1134 40.3539L77.6352 47.3917Z" fill="white"/>
<path id="path158" d="M68.5025 26.079C68.0784 26.079 67.7092 26.2279 67.4048 26.522C67.1076 26.809 66.9632 27.15 66.9632 27.5646V48.3051C66.9632 48.7149 67.1122 49.0719 67.4063 49.3662C67.708 49.6469 68.0777 49.7907 68.5025 49.7907C68.9212 49.7907 69.2751 49.651 69.5843 49.3632C69.8751 49.0722 70.0243 48.7149 70.0243 48.3051V42.6991L75.1448 49.2063C75.3982 49.5362 75.7241 49.7218 76.1417 49.7745C76.5604 49.8276 76.9242 49.7347 77.2535 49.491C77.5956 49.2461 77.7881 48.9314 77.8431 48.5282C77.8981 48.1244 77.8018 47.7736 77.5492 47.4552L77.5488 47.4548L71.9701 40.3445L77.0674 35.4082C77.3648 35.1208 77.5092 34.7854 77.5092 34.3822C77.5092 33.979 77.3648 33.6435 77.0676 33.3567C76.7703 33.0699 76.4227 32.9306 76.0049 32.9306C75.5751 32.9306 75.2217 33.0699 74.9245 33.3567L70.0243 38.0858V27.5646C70.0243 27.1498 69.8799 26.8088 69.5829 26.522C69.2738 26.2239 68.9205 26.079 68.5025 26.079ZM68.5025 50C68.0197 50 67.5992 49.8366 67.2528 49.5138C66.916 49.1767 66.7463 48.7709 66.7463 48.3051V27.5646C66.7463 27.0984 66.9164 26.6977 67.2514 26.374C67.5979 26.0393 68.0189 25.8697 68.5025 25.8697C68.9741 25.8697 69.3891 26.0393 69.7361 26.374C70.0713 26.6977 70.241 27.0982 70.241 27.5646V37.5807L74.7712 33.2087C75.1064 32.8854 75.5215 32.7212 76.0049 32.7212C76.4765 32.7212 76.8858 32.8854 77.2208 33.2087C77.556 33.5322 77.7261 33.927 77.7261 34.3822C77.7261 34.8372 77.556 35.2321 77.2208 35.5558L72.2567 40.3633L77.7215 47.3283C78.0067 47.6876 78.1201 48.1006 78.0583 48.5555C77.9957 49.0114 77.7691 49.3823 77.384 49.6579C77.0136 49.9326 76.585 50.0409 76.1134 49.9822C75.6412 49.9223 75.2569 49.7035 74.9715 49.3318L70.241 43.3207V48.3051C70.241 48.7711 70.0717 49.1769 69.7376 49.5112C69.3881 49.8366 68.9736 50 68.5025 50Z" fill="white"/>
<path id="path162" d="M83.0515 39.6943H91.1849C91.1731 38.6343 90.7818 37.7207 90.0105 36.9535C89.2157 36.1982 88.2751 35.8201 87.1884 35.8201H87.0657C85.9552 35.8201 85.0087 36.1982 84.2259 36.9535C83.4428 37.7093 83.0515 38.6174 83.0515 39.6772V39.6943ZM94.4804 39.6772C94.4804 40.2525 94.3284 40.7827 94.0247 41.2675C93.3937 42.3164 92.4527 42.8408 91.2024 42.8408L83.0515 42.8579C83.0515 43.9292 83.4428 44.8429 84.2259 45.5983C85.0087 46.354 85.9552 46.7319 87.0657 46.7319H87.1884C88.5437 46.7319 89.6247 46.1963 90.4312 45.1247C90.8984 44.5045 91.5119 44.324 92.2716 44.5834C92.7976 44.7525 93.1422 45.0909 93.3058 45.5983C93.4694 46.1173 93.3876 46.591 93.0606 47.0194C91.5996 48.9368 89.6424 49.8953 87.1884 49.8953H87.0657C85.0673 49.8953 83.3553 49.2132 81.9298 47.8484C80.5156 46.495 79.7969 44.8539 79.7737 42.9254V39.6772C79.7737 37.7377 80.4862 36.0853 81.9121 34.7205C83.3378 33.3447 85.0555 32.6565 87.0657 32.6565H87.1884C89.2216 32.6565 90.9509 33.3561 92.3768 34.7545C93.0545 35.4199 93.5746 36.1813 93.937 37.0384C94.1355 37.5009 94.2757 37.9801 94.3577 38.4762C94.4391 38.8712 94.4804 39.2714 94.4804 39.6772Z" fill="white"/>
<path id="path166" d="M83.1608 39.5896H91.0739C91.0382 38.606 90.6546 37.744 89.9328 37.0265C89.1642 36.2961 88.24 35.9248 87.1883 35.9248H87.0656C85.9905 35.9248 85.0608 36.2957 84.3024 37.0274C83.566 37.7383 83.1821 38.6 83.1608 39.5896ZM91.2946 39.799H82.9431V39.677C82.9431 38.5932 83.3489 37.6518 84.1493 36.8796C84.9497 36.1071 85.931 35.7155 87.0656 35.7155H87.1883C88.2992 35.7155 89.2744 36.1069 90.0865 36.8788C90.8759 37.6638 91.2813 38.6099 91.2933 39.693L91.2946 39.799ZM87.0656 32.7612C85.0948 32.7612 83.3866 33.4453 81.9888 34.7945C80.5909 36.1325 79.882 37.775 79.882 39.677V42.9255C79.9047 44.815 80.6193 46.4467 82.0062 47.774C83.4039 49.112 85.1062 49.7906 87.0656 49.7906H87.1883C89.5946 49.7906 91.5408 48.8373 92.973 46.9573C93.2817 46.5534 93.3565 46.1188 93.202 45.6286C93.0481 45.1515 92.7325 44.8418 92.2373 44.6826C91.52 44.4377 90.9586 44.6027 90.5188 45.1862C89.695 46.2811 88.5744 46.8363 87.1883 46.8363H87.0656C85.9306 46.8363 84.9495 46.4447 84.1493 45.6721C83.3489 44.9002 82.9431 43.9533 82.9431 42.8577V42.7534L91.2021 42.7362C92.4224 42.7362 93.315 42.2384 93.9309 41.2148C94.2238 40.7473 94.372 40.2304 94.372 39.677C94.372 39.2821 94.3313 38.885 94.2516 38.4964C94.1702 38.0066 94.0309 37.5306 93.8369 37.0782C93.4811 36.2371 92.964 35.4801 92.2995 34.8277C90.9016 33.4565 89.1817 32.7612 87.1883 32.7612H87.0656ZM87.1883 49.9998H87.0656C85.0469 49.9998 83.2934 49.3011 81.8532 47.9228C80.4246 46.5552 79.6886 44.8743 79.6652 42.9266V39.677C79.6652 37.7172 80.3955 36.0247 81.8357 34.6461C83.2755 33.2568 85.0353 32.5519 87.0656 32.5519H87.1883C89.2418 32.5519 91.0136 33.2683 92.4542 34.681C93.1387 35.353 93.6712 36.133 94.0372 36.9989C94.2377 37.4657 94.3817 37.9575 94.4649 38.4595C94.5469 38.8576 94.5887 39.2685 94.5887 39.677C94.5887 40.2692 94.4303 40.8224 94.1173 41.3215C93.4693 42.3985 92.4882 42.9455 91.2023 42.9455L83.1611 42.9622C83.1863 43.9561 83.5698 44.8174 84.3024 45.5241C85.0606 46.2561 85.9903 46.627 87.0656 46.627H87.1883C88.5012 46.627 89.5626 46.101 90.3434 45.0632C90.8401 44.4041 91.5008 44.2096 92.3079 44.4847C92.8641 44.6635 93.2355 45.0282 93.4094 45.5671C93.5827 46.1177 93.4946 46.6268 93.1476 47.0813C91.6724 49.0178 89.6674 49.9998 87.1883 49.9998Z" fill="white"/>
<path id="path170" d="M104.244 46.7318C104.7 46.7318 105.085 46.8842 105.401 47.1886C105.728 47.5044 105.892 47.8766 105.892 48.3051C105.892 48.7449 105.728 49.1231 105.401 49.4386C105.085 49.743 104.7 49.8954 104.244 49.8954H104.226C102.216 49.8954 100.498 49.2076 99.073 47.8314C97.647 46.4556 96.9346 44.7977 96.9346 42.8578V27.6155C96.9346 27.1869 97.0921 26.8148 97.4077 26.4988C97.7348 26.1943 98.1265 26.0421 98.5823 26.0421C99.0262 26.0421 99.4118 26.1943 99.739 26.4988C100.055 26.8148 100.212 27.1869 100.212 27.6155V32.8597H102.859C103.315 32.8597 103.701 33.0119 104.016 33.3165C104.343 33.621 104.507 33.9931 104.507 34.4329C104.507 34.8728 104.343 35.245 104.016 35.5496C103.701 35.8654 103.315 36.0231 102.859 36.0231H100.212V42.8578C100.212 43.9294 100.604 44.8428 101.387 45.5984C102.17 46.3541 103.116 46.7318 104.226 46.7318H104.244Z" fill="white"/>
<path id="path174" d="M98.5822 26.1466C98.1517 26.1466 97.7919 26.2863 97.4828 26.5742C97.1877 26.8697 97.0429 27.2112 97.0429 27.6155V42.8578C97.0429 44.7606 97.7516 46.409 99.1494 47.7575C100.547 49.1066 102.255 49.7907 104.226 49.7907C104.674 49.7907 105.027 49.6514 105.324 49.3648C105.629 49.0706 105.783 48.7142 105.783 48.3052C105.783 47.9021 105.633 47.561 105.324 47.2624C105.027 46.9758 104.674 46.8365 104.244 46.8365H104.226C103.091 46.8365 102.11 46.4448 101.31 45.6722C100.51 44.9001 100.104 43.9533 100.104 42.8578V35.9185H102.859C103.288 35.9185 103.641 35.774 103.938 35.4769C104.249 35.1877 104.398 34.8468 104.398 34.4329C104.398 34.0189 104.249 33.6783 103.941 33.3917C103.642 33.1038 103.289 32.9644 102.859 32.9644H100.104V27.6155C100.104 27.2112 99.959 26.8697 99.6609 26.5715C99.3546 26.2865 99.0008 26.1466 98.5822 26.1466ZM104.244 49.9999C102.196 49.9999 100.436 49.2952 98.9962 47.9054C97.5562 46.5163 96.826 44.8179 96.826 42.8578V27.6155C96.826 27.1607 96.9954 26.7606 97.3296 26.4263C97.6791 26.1011 98.0996 25.9375 98.5822 25.9375C99.0529 25.9375 99.4674 26.1011 99.8141 26.4235C100.151 26.7606 100.321 27.1607 100.321 27.6155V32.7553H102.859C103.343 32.7553 103.758 32.9191 104.093 33.2426C104.439 33.5648 104.615 33.9658 104.615 34.4329C104.615 34.9002 104.439 35.3012 104.092 35.6247C103.759 35.9576 103.343 36.1278 102.859 36.1278H100.321V42.8578C100.321 43.8956 100.705 44.7929 101.463 45.5242C102.221 46.2563 103.151 46.6272 104.226 46.6272H104.244C104.727 46.6272 105.142 46.7911 105.477 47.1145C105.824 47.4495 106 47.8504 106 48.3052C106 48.7715 105.824 49.178 105.477 49.5126C105.142 49.8361 104.727 49.9999 104.244 49.9999Z" fill="white"/>
</g>
<defs>
<linearGradient id="paint0_linear_8554_1009" x1="25.0901" y1="13.6252" x2="55.3681" y2="13.6252" gradientUnits="userSpaceOnUse">
<stop stop-color="#E39B24"/>
<stop offset="1" stop-color="#9C7025"/>
</linearGradient>
<linearGradient id="paint1_linear_8554_1009" x1="29.2601" y1="13.5717" x2="59.5787" y2="13.5717" gradientUnits="userSpaceOnUse">
<stop stop-color="#E39B24"/>
<stop offset="1" stop-color="#9C7025"/>
</linearGradient>
<linearGradient id="paint2_linear_8554_1009" x1="27.1379" y1="12.814" x2="57.7207" y2="12.814" gradientUnits="userSpaceOnUse">
<stop stop-color="#E39B24"/>
<stop offset="1" stop-color="#9C7025"/>
</linearGradient>
</defs>
</svg>
