<svg width="128" height="70" viewBox="0 0 128 70" fill="none" xmlns="http://www.w3.org/2000/svg">
<g id="Group 9">
<path id="path78" d="M0 35C0 54.2996 16.4114 70 36.5841 70C46.4135 70 55.3433 66.2657 61.9226 60.209L60.4673 57.9629C54.3371 63.7981 45.8938 67.4108 36.5841 67.4108C17.9041 67.4108 2.70711 52.8722 2.70711 35C2.70711 17.1292 17.9041 2.58927 36.5841 2.58927C54.7403 2.58927 69.6569 16.1402 70.4788 33.3112H70.4605C70.4605 33.5476 70.4894 33.778 70.4972 34.0124C70.5042 34.2758 70.5184 34.5379 70.5184 34.8034C70.5184 34.927 70.5374 35.0844 70.5636 35.2547C70.6003 35.6194 70.6674 35.9754 70.7246 36.3348C70.733 36.4233 70.745 36.5192 70.7422 36.5908L70.7655 36.5881C72.4085 46.0866 81.0305 53.3599 91.4169 53.3599C102.973 53.3599 112.373 44.3668 112.373 33.3112V1.29497H109.666V33.3112C109.666 42.9387 101.48 50.7707 91.4169 50.7707C82.3325 50.7707 74.7993 44.3803 73.4154 36.0565C73.3978 35.8336 73.3554 35.5917 73.301 35.3411C73.2198 34.6744 73.1669 33.9989 73.1669 33.3112H73.1323C72.4996 14.5595 56.3565 0 36.5841 0C16.4114 0 0 15.7011 0 35Z" fill="url(#paint0_linear_7817_44352)"/>
<path id="path98" d="M125.294 1.29529V33.3115C125.294 51.1831 110.097 65.7216 91.4165 65.7216C73.6727 65.7216 59.0823 52.6016 57.6631 35.9704L57.6659 35.9082C57.68 35.6069 57.6906 35.305 57.6906 35.001C57.6906 23.8664 48.2221 14.8077 36.5831 14.8077C24.9447 14.8077 15.4762 23.8664 15.4762 35.001C15.4762 46.1356 24.9447 55.195 36.5831 55.195C42.0531 55.195 47.2456 53.188 51.2032 49.5456L51.5548 49.222L50.0819 46.9482L49.5431 47.4609C46.0699 50.7669 41.467 52.5881 36.5831 52.5881C26.4473 52.5881 18.2009 44.6987 18.2009 35.001C18.2009 25.3026 26.4473 17.4125 36.5831 17.4125C46.1236 17.4125 53.9851 24.4035 54.8769 33.3115H54.8331C54.8331 34.1721 54.8769 35.0233 54.9411 35.8684L54.9228 36.296L54.9757 36.3007C56.5672 54.2047 72.298 68.3115 91.4165 68.3115C111.589 68.3115 128 52.6104 128 33.3115V1.29529H125.294Z" fill="url(#paint1_linear_7817_44352)"/>
<path id="path118" d="M118.398 1.29496V33.3112C118.398 47.2215 106.569 58.5391 92.0291 58.5391C77.4888 58.5391 65.6599 47.2215 65.6599 33.3112H65.5998C65.5165 24.6659 61.2758 16.9197 53.9255 12.0296C45.9065 6.69372 35.6048 5.66018 25.6604 9.19044C18.2204 11.8324 12.3691 17.4304 9.60626 24.5484C6.08503 33.6246 7.23734 43.1913 12.7667 50.799C18.2007 58.2737 27.1043 62.7368 36.5835 62.7368C44.0969 62.7368 51.2283 59.9807 56.6644 54.9771L56.8402 54.815L55.3694 52.5466L55.1004 52.8026C47.7085 59.8409 36.8207 61.9796 26.6849 58.3838C19.9553 55.9972 14.6604 50.9422 12.1594 44.514C8.95313 36.2794 9.98824 27.5983 14.9986 20.6986C19.9207 13.9197 27.9898 9.8727 36.5835 9.8727C50.6408 9.8727 62.1647 20.2899 62.9563 33.4145C63.0156 48.7056 76.0329 61.1284 92.0291 61.1284C108.062 61.1284 121.105 48.6495 121.105 33.3112V1.29496H118.398Z" fill="url(#paint2_linear_7817_44352)"/>
</g>
<defs>
<linearGradient id="paint0_linear_7817_44352" x1="0.000111723" y1="35.0001" x2="112.373" y2="35.0001" gradientUnits="userSpaceOnUse">
<stop stop-color="#E39B24"/>
<stop offset="1" stop-color="#9C7025"/>
</linearGradient>
<linearGradient id="paint1_linear_7817_44352" x1="15.4763" y1="34.8035" x2="128" y2="34.8035" gradientUnits="userSpaceOnUse">
<stop stop-color="#E39B24"/>
<stop offset="1" stop-color="#9C7025"/>
</linearGradient>
<linearGradient id="paint2_linear_7817_44352" x1="7.60045" y1="32.016" x2="121.105" y2="32.016" gradientUnits="userSpaceOnUse">
<stop stop-color="#E39B24"/>
<stop offset="1" stop-color="#9C7025"/>
</linearGradient>
</defs>
</svg>
