<svg width="24" height="24" viewBox="0 0 24 24" fill="none" xmlns="http://www.w3.org/2000/svg">
<g id="search">
<mask id="mask0_8554_1037" style="mask-type:alpha" maskUnits="userSpaceOnUse" x="0" y="0" width="24" height="24">
<rect id="Bounding box" width="24" height="24" fill="#D9D9D9"/>
</mask>
<g mask="url(#mask0_8554_1037)">
<path id="search_2" d="M19.475 20.15L13.225 13.9C12.725 14.3167 12.15 14.6417 11.5 14.875C10.85 15.1084 10.2 15.225 9.55 15.225C7.93334 15.225 6.571 14.6707 5.463 13.562C4.35434 12.454 3.8 11.1 3.8 9.50002C3.8 7.90002 4.35434 6.54569 5.463 5.43702C6.571 4.32902 7.925 3.77502 9.525 3.77502C11.125 3.77502 12.4833 4.32902 13.6 5.43702C14.7167 6.54569 15.275 7.90002 15.275 9.50002C15.275 10.2 15.15 10.875 14.9 11.525C14.65 12.175 14.325 12.725 13.925 13.175L20.2 19.45L19.475 20.15ZM9.55 14.225C10.8667 14.225 11.9833 13.771 12.9 12.863C13.8167 11.9544 14.275 10.8334 14.275 9.50002C14.275 8.16669 13.8167 7.04569 12.9 6.13702C11.9833 5.22902 10.8667 4.77502 9.55 4.77502C8.21667 4.77502 7.09167 5.22902 6.175 6.13702C5.25834 7.04569 4.8 8.16669 4.8 9.50002C4.8 10.8334 5.25834 11.9544 6.175 12.863C7.09167 13.771 8.21667 14.225 9.55 14.225Z" fill="#000002"/>
</g>
</g>
</svg>
