<svg width="24" height="24" viewBox="0 0 24 24" fill="none" xmlns="http://www.w3.org/2000/svg">
<g id="confirmation_number">
<mask id="mask0_7578_3228" style="mask-type:alpha" maskUnits="userSpaceOnUse" x="0" y="0" width="24" height="24">
<rect id="Bounding box" width="24" height="24" fill="#D9D9D9"/>
</mask>
<g mask="url(#mask0_7578_3228)">
<path id="confirmation_number_2" d="M4 19C3.73333 19 3.5 18.9 3.3 18.7C3.1 18.5 3 18.2667 3 18V14.8C3.58333 14.5833 4.06267 14.2207 4.438 13.712C4.81267 13.204 5 12.6333 5 12C5 11.3667 4.81267 10.7957 4.438 10.287C4.06267 9.779 3.58333 9.41667 3 9.2V6C3 5.73333 3.1 5.5 3.3 5.3C3.5 5.1 3.73333 5 4 5H20C20.2667 5 20.5 5.1 20.7 5.3C20.9 5.5 21 5.73333 21 6V9.2C20.4167 9.41667 19.9373 9.779 19.562 10.287C19.1873 10.7957 19 11.3667 19 12C19 12.6333 19.1873 13.204 19.562 13.712C19.9373 14.2207 20.4167 14.5833 21 14.8V18C21 18.2667 20.9 18.5 20.7 18.7C20.5 18.9 20.2667 19 20 19H4ZM4 18H20V15.45C19.3833 15.0833 18.896 14.596 18.538 13.988C18.1793 13.3793 18 12.7167 18 12C18 11.2833 18.1793 10.6207 18.538 10.012C18.896 9.404 19.3833 8.91667 20 8.55V6H4V8.55C4.61667 8.91667 5.10433 9.404 5.463 10.012C5.821 10.6207 6 11.2833 6 12C6 12.7167 5.821 13.3793 5.463 13.988C5.10433 14.596 4.61667 15.0833 4 15.45V18ZM12 16.3C12.15 16.3 12.271 16.2543 12.363 16.163C12.4543 16.071 12.5 15.95 12.5 15.8C12.5 15.6667 12.45 15.55 12.35 15.45C12.25 15.35 12.1333 15.3 12 15.3C11.85 15.3 11.729 15.35 11.637 15.45C11.5457 15.55 11.5 15.6667 11.5 15.8C11.5 15.95 11.55 16.071 11.65 16.163C11.75 16.2543 11.8667 16.3 12 16.3ZM12 12.5C12.15 12.5 12.271 12.45 12.363 12.35C12.4543 12.25 12.5 12.1333 12.5 12C12.5 11.85 12.45 11.729 12.35 11.637C12.25 11.5457 12.1333 11.5 12 11.5C11.85 11.5 11.729 11.55 11.637 11.65C11.5457 11.75 11.5 11.8667 11.5 12C11.5 12.15 11.55 12.271 11.65 12.363C11.75 12.4543 11.8667 12.5 12 12.5ZM12 8.7C12.15 8.7 12.271 8.65 12.363 8.55C12.4543 8.45 12.5 8.33333 12.5 8.2C12.5 8.05 12.45 7.929 12.35 7.837C12.25 7.74567 12.1333 7.7 12 7.7C11.85 7.7 11.729 7.74567 11.637 7.837C11.5457 7.929 11.5 8.05 11.5 8.2C11.5 8.33333 11.55 8.45 11.65 8.55C11.75 8.65 11.8667 8.7 12 8.7Z" fill="#000002"/>
</g>
</g>
</svg>
