<svg width="25" height="24" viewBox="0 0 25 24" fill="none" xmlns="http://www.w3.org/2000/svg">
<g id="TikTok logo">
<path id="Vector" d="M10.22 9.44142V8.50753C9.8958 8.4562 9.56837 8.42806 9.24018 8.42336C6.06288 8.41658 3.24992 10.4756 2.29577 13.5062C1.34162 16.5369 2.46788 19.8359 5.07586 21.6506C4.11951 20.627 3.47984 19.3486 3.23406 17.9695C2.98829 16.5905 3.14691 15.1698 3.69079 13.8789C4.23467 12.588 5.14055 11.4821 6.29909 10.6947C7.45764 9.9073 8.81932 9.47208 10.2198 9.44154L10.22 9.44142Z" fill="#25F4EE"/>
<path id="Vector_2" d="M10.397 20.0203C12.1734 20.0179 13.6336 18.6184 13.7114 16.8436V1.00621H16.6047C16.5457 0.675276 16.5175 0.339567 16.5206 0.00341797H12.5631V15.8256C12.4973 17.6093 11.0336 19.0223 9.24864 19.0252C8.71525 19.0206 8.19054 18.8895 7.71777 18.6425C8.02418 19.067 8.4266 19.4131 8.8922 19.6525C9.35781 19.892 9.87341 20.018 10.397 20.0203ZM22.0089 6.37968V5.49937C20.9441 5.4998 19.9028 5.18561 19.016 4.59622C19.7934 5.50003 20.844 6.12605 22.0089 6.37968Z" fill="#25F4EE"/>
<path id="Vector_3" d="M19.0157 4.59628C18.142 3.60144 17.6604 2.32255 17.6608 0.998535H16.6044C16.7409 1.73057 17.025 2.42712 17.4396 3.04569C17.8542 3.66425 18.3905 4.19184 19.0157 4.59628ZM9.24074 12.381C8.49984 12.3848 7.78144 12.6361 7.19978 13.0951C6.61811 13.5541 6.20659 14.1943 6.03063 14.914C5.85463 15.6337 5.92429 16.3916 6.22856 17.0672C6.53279 17.7428 7.05417 18.2973 7.70975 18.6425C7.35128 18.1476 7.13666 17.5632 7.0895 16.954C7.04238 16.3448 7.16456 15.7343 7.44257 15.1902C7.72062 14.646 8.14366 14.1893 8.665 13.8705C9.1863 13.5517 9.78562 13.3833 10.3967 13.3837C10.7289 13.388 11.0588 13.4398 11.3764 13.5373V9.51053C11.052 9.46188 10.7246 9.43631 10.3967 9.43402H10.2205V12.4958C9.90125 12.4102 9.57118 12.3715 9.24074 12.381Z" fill="#FE2C55"/>
<path id="Vector_4" d="M22.0084 6.37939V9.44129C20.0371 9.43746 18.117 8.81346 16.52 7.65775V15.7028C16.5115 19.7171 13.2549 22.967 9.2405 22.967C7.74959 22.9697 6.29458 22.5097 5.07617 21.6504C6.0697 22.7191 7.36203 23.4637 8.7848 23.7874C10.2075 24.1111 11.6949 23.9988 13.0529 23.4653C14.4109 22.9316 15.5768 22.0014 16.3987 20.7958C17.2206 19.5901 17.6603 18.1649 17.6606 16.7058V8.68351C19.2629 9.83164 21.1854 10.4475 23.1566 10.4441V6.50158C22.7706 6.50043 22.3859 6.45947 22.0084 6.37939Z" fill="#FE2C55"/>
<path id="Vector_5" d="M16.5202 15.7031V7.6581C18.122 8.80722 20.0448 9.42319 22.0161 9.41863V6.35685C20.8515 6.11088 19.7984 5.49297 19.0156 4.59628C18.3904 4.19184 17.8541 3.66425 17.4395 3.04569C17.0249 2.42712 16.7408 1.73057 16.6043 0.998535H13.711V16.8439C13.6829 17.5336 13.4405 18.1974 13.0178 18.7431C12.5949 19.2888 12.0127 19.6891 11.3518 19.8886C10.691 20.0881 9.98441 20.0768 9.33029 19.8563C8.6762 19.6357 8.10701 19.2169 7.70189 18.658C7.04623 18.3128 6.52474 17.7583 6.22043 17.0827C5.91609 16.4071 5.84638 15.6491 6.02238 14.9293C6.19838 14.2095 6.60994 13.5692 7.19168 13.1103C7.77343 12.6513 8.49193 12.4 9.23291 12.3963C9.56523 12.3993 9.89534 12.4509 10.2127 12.5494V9.48753C8.80474 9.51142 7.4341 9.94441 6.26797 10.7338C5.10181 11.5232 4.19055 12.6348 3.64525 13.9331C3.09996 15.2315 2.9442 16.6604 3.19697 18.0457C3.44974 19.431 4.10012 20.7128 5.06881 21.7349C6.29917 22.5659 7.75624 22.9963 9.24064 22.9674C13.255 22.9674 16.5117 19.7175 16.5202 15.7031Z" fill="black"/>
</g>
</svg>
