<svg width="32" height="32" viewBox="0 0 32 32" fill="none" xmlns="http://www.w3.org/2000/svg">
<g id="volume_up">
<mask id="mask0_8554_1094" style="mask-type:alpha" maskUnits="userSpaceOnUse" x="0" y="0" width="32" height="32">
<rect id="Bounding box" width="32" height="32" fill="#D9D9D9"/>
</mask>
<g mask="url(#mask0_8554_1094)">
<path id="volume_up_2" d="M18.7667 26V24.6C20.6111 23.9556 22.1 22.8445 23.2333 21.2667C24.3667 19.6889 24.9333 17.9222 24.9333 15.9667C24.9333 14.0111 24.3667 12.2445 23.2333 10.6667C22.1 9.08891 20.6111 7.97779 18.7667 7.33335V5.93335C20.9667 6.64446 22.7667 7.91646 24.1667 9.74935C25.5667 11.5831 26.2667 13.6556 26.2667 15.9667C26.2667 18.2778 25.5667 20.3498 24.1667 22.1827C22.7667 24.0165 20.9667 25.2889 18.7667 26ZM5.73334 18.6667V13.3334H10.3L15.0667 8.56668V23.4334L10.3 18.6667H5.73334ZM18.7667 20.4V11.5333C19.5222 12.0222 20.0947 12.6667 20.484 13.4667C20.8724 14.2667 21.0667 15.1111 21.0667 16C21.0667 16.8889 20.8667 17.7222 20.4667 18.5C20.0667 19.2778 19.5 19.9111 18.7667 20.4ZM13.7333 11.8L10.8667 14.6667H7.06667V17.3334H10.8667L13.7333 20.2V11.8Z" fill="white"/>
</g>
</g>
</svg>
